<?xml version="1.0" standalone="no"?><!DOCTYPE svg PUBLIC "-//W3C//DTD SVG 1.1//EN" "http://www.w3.org/Graphics/SVG/1.1/DTD/svg11.dtd"><svg t="1531027486533" class="icon" style="" viewBox="0 0 1024 1024" version="1.1" xmlns="http://www.w3.org/2000/svg" p-id="1627" xmlns:xlink="http://www.w3.org/1999/xlink" width="64" height="64"><defs><style type="text/css"></style></defs><path d="M527.533761 527.280886m-428.081563 0a428.081564 428.081564 0 1 0 856.163127 0 428.081564 428.081564 0 1 0-856.163127 0Z" fill="#E3DEFF" p-id="1628"></path><path d="M650.250476 562.827912s-48.08241 8.092006-59.642418 4.913004-15.967262 4.913004-16.256262 17.123262c-14.01651-4.190503-28.502646-7.803006-33.379525-6.032879-9.573132 3.395752-49.635786 0.830876-67.91505 8.525506-2.817752 1.192126-6.502505 2.601002-10.837507 4.154378 0.180625-13.474635-3.612503-22.975517-16.292387-19.507514-11.307133 3.179002-59.389543-4.840754-59.389544-4.840754s-45.698158 89.553941-32.512524 148.401609c9.248007 41.760531 36.919777 46.167784 52.200664 45.192408 1.553376 34.71615 6.46638 70.443802 18.965638 88.434065 0 0 9.500882 15.642136 25.287519 15.642136 0 0 24.998518 5.454879 25.468144-56.463416a11.632259 11.632259 0 0 1 14.955761-11.090383h0.397375c17.520638 5.960629 43.639032 19.543639 71.635927-1.228251 0 0 22.108516-17.881888 19.868765 16.870387s-4.804629 48.479786 12.354759 52.092289c19.579764 4.118253 31.898398-10.837508 40.026529-49.816412a288.458336 288.458336 0 0 0 5.129754-59.064418 46.203909 46.203909 0 0 0 14.955761-4.154378c11.451633-5.527129 22.614267-17.195513 27.852395-40.82128 12.896634-58.775418-32.873774-148.329359-32.873774-148.329359z" fill="#FFFFFF" p-id="1629"></path><path d="M360.202639 632.368588s6.89988 24.926268 21.06089 31.609398c7.658506 3.612503 34.752275-24.384393 55.993791 4.515629 14.702886 20.013265-8.814506 56.896917 3.612503 78.138432 6.719255 11.451633 37.931278 30.850773 82.473435 27.81627 60.87067-4.082128 93.744444-51.983913 74.23693-101.150074l-0.469626-1.192126c-16.256262-39.737529-26.190644-66.831299-26.190644-66.831299s73.153179-35.221901 83.990687-23.481267 29.803147 37.931278 30.706272 48.768786-3.612503 85.796938-3.612502 88.506315-15.353136 27.09377-15.353137 27.09377-18.062513-18.062513-18.062513-11.740634 0.903126 49.671911-1.806251 60.509419-18.062513 61.412545-18.062514 61.412545l-30.706272 8.128131-18.062513-54.18754s0-12.643759-11.740634-9.031256-73.153179 1.806251-73.153178 1.806251-16.220137-4.262753-16.256262 4.660129-14.450011 55.849291-18.062514 55.84929-33.70465-5.707754-32.512523-15.064136-14.450011-76.476681-14.016511-88.97594 0.614125-65.747548 0.614126-65.747548l-18.062513 57.800042s-18.965639 10.837508-21.675016 0.903126-15.353136-35.221901-15.353137-46.059409 0.469625-74.056304 0.469626-74.056304z" fill="#E1D9FF" p-id="1630"></path><path d="M401.999294 772.822691c-25.937769 0-53.537289-14.630636-62.821421-56.607916-14.052635-63.182671 31.898398-154.253863 33.84915-158.083116l4.840754-9.464757 10.440132 1.770126c21.06089 3.612503 47.57666 6.46638 53.53729 5.202004a24.709518 24.709518 0 0 1 31.175897 13.835885c12.824384-3.612503 29.333521-4.515628 44.180908-5.238129a152.194736 152.194736 0 0 0 18.532138-1.481126c5.057504-1.806251 11.704509-2.059127 27.23827 1.734001a25.287519 25.287519 0 0 1 7.766881-9.681507 25.829394 25.829394 0 0 1 23.192267-3.612502c5.816129 1.264376 32.512524-1.661751 53.392789-5.202004l10.440133-1.770126 4.840753 9.428632c1.950751 3.865378 47.901785 94.93657 33.885275 158.11924-6.89988 31.067523-23.228392 44.722783-35.727651 50.575037a61.123545 61.123545 0 0 1-24.854018 5.852255l-0.903126-28.900022a32.512524 32.512524 0 0 0 13.257885-3.070627c9.753757-4.660128 16.473012-15.064136 20.013264-30.886897 9.464757-42.699781-16.256262-105.701827-26.985394-129.327595-16.725887 2.528752-41.03803 5.418754-52.814789 3.359627 0 0.830876-0.180625 1.842376-0.21675 3.070628l-0.469625 18.893388-18.062514-5.382629c-17.773513-5.310379-23.842517-5.888379-25.576518-5.924504a119.465462 119.465462 0 0 1-25.540394 2.709377c-13.402385 0.65025-31.790023 1.517251-40.46003 5.165879-2.962252 1.264376-6.82763 2.745502-11.234883 4.371128l-19.796515 7.441756 0.289001-21.169266a36.125026 36.125026 0 0 0-0.21675-4.913004c-11.776759 2.059127-36.125026-0.830876-52.814789-3.359627-10.837508 23.661892-36.414027 86.700064-26.94927 129.327595 5.635504 25.504269 19.399139 36.775277 40.89353 33.487899h5.671629l0.975376 28.900021h-3.179002a72.900303 72.900303 0 0 1-9.789883 0.830876z m141.682354-182.395259z m-97.176321-9.392506z" fill="#404951" p-id="1631"></path><path d="M644.976222 304.822973s21.675016-36.125026 46.962535-31.284273 40.929655-9.645382 16.870387-42.157906-39.737529-39.737529-57.800042-34.9329-13.257885 31.320398-14.450011 44.578283-19.290764 34.896776-19.290764 34.896775" fill="#FFFFFF" p-id="1632"></path><path d="M657.475482 312.264729l-24.781769-14.847386c2.745502-4.587878 27.852395-44.578283 62.062796-38.075778a20.013265 20.013265 0 0 0 11.668383-0.252875c0-1.878501-1.047626-8.200381-9.139631-19.110139-25.287519-34.13815-35.619276-31.356523-42.446906-29.550272-3.612503 0.939251-3.612503 14.450011-3.612503 20.880265 0 3.901503 0 7.586256-0.289 10.837508-1.481126 16.436887-17.629013 36.955902-22.542017 42.844282l-22.216891-18.496014c7.225005-8.633881 15.497636-21.675016 15.967262-26.985395 0.21675-2.059127 0.180625-5.093629 0.180625-8.272631 0-14.775136 0-42.230156 24.962393-48.913285 31.753898-8.489381 53.898539 14.450011 73.117054 40.279404s16.292387 42.483031 10.440132 51.803288c-7.514006 11.957384-22.686517 16.762012-41.61603 13.14951-11.487758-2.167502-26.696395 16.111762-31.753898 24.709518z" fill="#404951" p-id="1633"></path><path d="M375.700275 309.049601s-21.675016-36.125026-46.962534-31.320398-40.929655-9.609257-16.870388-42.12178 39.737529-39.737529 57.800043-34.932901 13.257885 31.320398 14.45001 44.542158 19.290764 34.932901 19.290764 34.9329" fill="#FFFFFF" p-id="1634"></path><path d="M363.490016 316.527482c-5.454879-8.959007-20.374515-26.80477-31.898398-24.601143-18.929514 3.612503-34.102025-1.156001-41.616031-13.14951-5.852254-9.284132-8.778381-25.901644 10.440133-51.767163s41.363155-48.768786 73.117054-40.279404c25.070768 6.68313 24.998518 34.13815 24.962393 48.877161v8.308756c0.469625 5.165879 8.778381 18.351513 15.967262 26.985394l-22.216892 18.496014c-4.913004-5.888379-21.06089-26.407394-22.542016-42.844281-0.325125-3.612503-0.289-7.225005-0.289-10.837508 0-6.46638 0-19.941015-3.612503-20.880266-6.82763-1.842376-17.159388-4.587878-42.446906 29.550272-8.092006 10.837508-9.320257 17.231638-9.139632 19.110139a20.19389 20.19389 0 0 0 11.668384 0.21675c34.2104-6.53863 59.317293 33.4879 62.062795 38.075778z" fill="#404951" p-id="1635"></path><path d="M729.725534 446.035702c0 94.141819-98.115572 170.474-219.170535 170.474s-219.13441-76.332181-219.134411-170.474 101.98095-214.040782 223.035914-214.040782S729.725534 351.893883 729.725534 446.035702z" fill="#FFFFFF" p-id="1636"></path><path d="M510.699499 630.959712c-128.785719 0-233.584421-83.087561-233.584421-184.92401 0-102.84795 109.422705-228.490792 237.485924-228.490793 59.859169 0 117.984336 27.09377 163.610245 76.332181C719.610527 338.563748 744.175545 395.42454 744.175545 446.035702c0 101.98095-104.762577 184.92401-233.476046 184.92401z m3.901503-384.514781c-91.938192 0-208.585903 93.925069-208.585903 199.590771 0 86.049813 91.829817 156.023989 204.6844 156.023989S715.275524 532.085515 715.275524 446.035702c0-43.350032-21.675016-93.058068-58.414168-132.506597-39.954279-43.277782-90.529316-67.084174-142.260354-67.084174z" fill="#404951" p-id="1637"></path><path d="M615.823326 279.029704c26.190644 34.932901 41.688281 75.862556 41.688281 112.276583 0 86.700064-90.312566 157.10774-202.011148 157.10774a239.834051 239.834051 0 0 1-124.017216-33.162775c33.198899 51.478163 101.583574 86.700064 180.625132 86.700064 111.554082 0 201.975023-70.335427 201.975023-157.10774 0-58.016792-39.015029-126.762718-98.260072-165.813872z" fill="#E1D9FF" p-id="1638"></path><path d="M363.201016 453.549707a48.768786 47.86566 90 1 0 95.73132 0 48.768786 47.86566 90 1 0-95.73132 0Z" fill="#CBB8FF" p-id="1639"></path><path d="M411.066676 516.768503a63.218796 63.218796 0 1 1 62.171171-63.218796 62.857546 62.857546 0 0 1-62.171171 63.218796z m0-97.537571a34.318775 34.318775 0 1 0 33.41565 34.318775 33.9214 33.9214 0 0 0-33.41565-34.318775z" fill="#404951" p-id="1640"></path><path d="M560.08241 446.324702a48.768786 47.86566 90 1 0 95.73132 0 48.768786 47.86566 90 1 0-95.73132 0Z" fill="#CBB8FF" p-id="1641"></path><path d="M607.94807 509.543498a63.218796 63.218796 0 1 1 62.315671-63.218796 62.857546 62.857546 0 0 1-62.315671 63.218796z m0-97.537571a34.318775 34.318775 0 1 0 33.41565 34.318775 33.9214 33.9214 0 0 0-33.41565-34.318775zM600.434065 877.838143a41.25478 41.25478 0 0 1-8.995132-0.975376c-28.033021-5.888379-26.407394-29.261271-24.348268-58.811543l0.541876-8.344881v-2.131377c-30.019897 20.19389-58.667043 9.645382-75.862556 3.215128l-2.131376-0.794751c-0.722501 30.381147-7.225005 50.105412-20.04939 60.328794a28.900021 28.900021 0 0 1-20.98864 6.53863c-21.422141-0.614125-33.84915-18.459889-36.125027-22.144641-30.706272-44.831158-20.84414-172.352501-19.615889-186.766387a14.450011 14.450011 0 1 1 28.900021 2.456502c0 0.325125-2.817752 33.9214-2.131377 71.961053 1.192126 64.230297 11.126508 87.819939 16.906513 96.16482l0.50575 0.758626s5.743879 8.706131 12.93276 8.706131h1.445001c2.420377-1.445001 9.320257-11.126508 9.537007-42.121781a26.335144 26.335144 0 0 1 10.837508-21.06089 25.504269 25.504269 0 0 1 22.975516-3.612503l0.614126 0.21675c2.059127 0.686376 4.226628 1.481126 6.502505 2.348127 16.292387 5.996754 33.162774 12.246384 51.658787-1.372751 3.251252-2.564877 16.689762-11.993509 29.875397-5.202004 14.955761 7.766881 13.619135 27.852395 13.185635 34.463275L596.062937 820.038101c-0.794751 11.451633-1.697876 24.348268-0.289001 28.069145a17.701263 17.701263 0 0 0 1.734002 0.505751 8.561631 8.561631 0 0 0 7.008255-0.794751c3.612503-2.275877 10.115007-10.187257 15.931136-37.859028 7.550131-36.125026 6.24963-87.494814-3.323502-134.276723a14.450011 14.450011 0 1 1 28.285896-5.816129c10.367883 50.575037 11.632259 106.352078 3.323502 146.017357-6.32188 30.092147-15.064136 47.396035-28.430396 56.138291a35.619276 35.619276 0 0 1-19.868764 5.816129z" fill="#404951" p-id="1642"></path><path d="M503.069893 727.474945l22.379454-25.919706 10.938658 9.443082-22.383066 25.919706z" fill="#404951" p-id="1643"></path><path d="M500.609779 713.895548l9.652607-10.754421 25.829394 23.192267-9.652607 10.754421z" fill="#404951" p-id="1644"></path><path d="M519.152755 759.492556c-19.796514 0-35.330276-12.210259-35.330276-27.780145h17.051013c0 5.093629 7.514006 10.837508 18.279263 10.837508s18.062513-5.635504 18.062513-10.837508h17.051013c0.180625 15.569886-15.317011 27.780145-35.113526 27.780145z" fill="#404951" p-id="1645"></path></svg>